<?xml version="1.0" standalone="no"?>
<!DOCTYPE svg PUBLIC "-//W3C//DTD SVG 20010904//EN"
 "http://www.w3.org/TR/2001/REC-SVG-20010904/DTD/svg10.dtd">
<svg version="1.0" xmlns="http://www.w3.org/2000/svg"
 width="1587.000000pt" height="2245.000000pt" viewBox="0 0 1587.000000 2245.000000"
 preserveAspectRatio="xMidYMid meet">

<g transform="translate(0.000000,2245.000000) scale(0.100000,-0.100000)"
fill="#000000" stroke="none">
<path d="M0 19854 c0 -2574 0 -2595 20 -2589 31 10 60 -12 60 -45 0 -34 -12
-43 -51 -42 l-29 1 0 -322 c0 -310 1 -323 20 -335 21 -13 17 -42 -6 -42 -12 0
-14 -1203 -14 -8240 l0 -8240 7935 0 7935 0 0 11225 0 11225 -7935 0 -7935 0
0 -2596z m2648 2501 c4 -20 -15 -36 -35 -28 -17 6 -17 40 0 46 19 8 32 2 35
-18z m1696 -11 c19 -18 20 -28 6 -55 -12 -22 -59 -26 -78 -7 -26 26 -1 78 38
78 10 0 26 -7 34 -16z m-1099 -153 c0 -43 -23 -60 -59 -43 -50 22 -27 85 29
80 27 -3 30 -7 30 -37z m3313 -249 c4 -35 -23 -57 -55 -45 -39 14 -46 64 -10
80 34 16 62 1 65 -35z m530 -4 c28 -28 7 -78 -33 -78 -12 0 -26 5 -33 12 -16
16 -15 65 1 71 22 10 53 7 65 -5z m838 -252 c9 -39 1 -61 -25 -64 -27 -4 -41
12 -41 49 0 32 7 39 36 39 17 0 25 -7 30 -24z m-1616 -36 c22 -41 -13 -80 -59
-65 -48 15 -31 85 19 85 19 0 33 -7 40 -20z m3180 -10 c24 -24 25 -38 3 -62
-20 -22 -41 -23 -65 -1 -22 20 -23 41 -1 65 21 23 38 23 63 -2z m-2565 -30
c17 -19 17 -22 3 -37 -28 -27 -69 5 -54 42 8 21 30 19 51 -5z m6055 -156 c12
-32 3 -53 -26 -60 -34 -9 -52 1 -60 32 -14 56 66 81 86 28z m-5280 -64 c8 -14
8 -26 0 -40 -18 -34 -70 -22 -70 16 0 40 52 58 70 24z m-7295 -84 c30 -45 -16
-91 -61 -61 -28 18 -31 46 -8 69 22 23 51 20 69 -8z m6792 -42 c3 -8 -2 -23
-11 -32 -15 -15 -17 -15 -33 1 -17 17 -17 19 1 33 25 18 35 18 43 -2z m-2017
-42 c18 -14 21 -25 16 -45 -8 -35 -49 -46 -76 -22 -25 23 -25 40 0 65 25 25
32 25 60 2z m4124 -28 c32 -31 13 -74 -32 -74 -25 0 -51 24 -52 47 0 18 29 43
50 43 10 0 26 -7 34 -16z m3341 -48 c30 -45 -20 -91 -64 -59 -23 16 -28 52 -9
71 20 20 56 14 73 -12z m2849 -102 c9 -8 16 -24 16 -34 0 -22 -25 -50 -45 -50
-21 0 -45 29 -45 54 0 43 44 61 74 30z m-2319 -28 c8 -24 6 -31 -14 -47 -28
-23 -35 -23 -55 -3 -19 18 -21 70 -3 78 30 13 62 1 72 -28z m-8387 8 c43 -30
16 -104 -38 -104 -54 0 -84 85 -37 108 31 15 49 14 75 -4z m-3570 -50 c29 -20
29 -62 0 -73 -32 -11 -58 -2 -70 25 -9 19 -8 28 7 44 22 24 34 25 63 4z m6462
-64 c25 -25 25 -42 -1 -66 -19 -17 -23 -17 -47 -3 -35 19 -40 52 -10 73 29 20
34 20 58 -4z m2529 -114 c7 -8 11 -27 9 -42 -6 -55 -88 -44 -88 11 0 41 53 62
79 31z m5595 -52 c22 -22 20 -50 -5 -68 -31 -21 -79 3 -79 40 0 19 29 44 50
44 10 0 26 -7 34 -16z m-5430 -530 c21 -8 20 -40 -1 -48 -23 -9 -47 22 -32 41
13 15 12 15 33 7z m3858 -51 c23 -21 23 -45 -1 -67 -26 -23 -52 -17 -70 16
-14 24 -14 28 3 47 23 25 43 27 68 4z m-7204 -45 c29 -29 7 -78 -35 -78 -32 0
-58 42 -43 69 12 24 58 29 78 9z m1733 -28 c25 -14 26 -66 2 -78 -10 -5 -29
-6 -43 -3 -32 9 -41 58 -14 78 22 16 30 16 55 3z m5271 -2 c26 -22 29 -47 8
-68 -24 -24 -38 -25 -62 -3 -22 20 -23 46 -2 67 19 19 35 20 56 4z m-11833
-100 c12 -33 2 -57 -27 -65 -31 -7 -56 7 -60 36 -5 31 15 51 50 51 20 0 31 -6
37 -22z m4646 -22 c31 -46 -25 -97 -66 -60 -23 21 -24 42 -2 66 22 25 50 23
68 -6z m5521 -161 c22 -34 6 -75 -29 -75 -30 0 -47 18 -47 50 0 52 48 68 76
25z m1919 5 c37 -41 -18 -105 -59 -70 -24 19 -26 50 -5 71 24 24 41 24 64 -1z
m-7051 -141 c20 -30 6 -63 -28 -67 -33 -4 -56 13 -56 42 0 47 57 63 84 25z
m-5436 -41 c28 -28 7 -78 -33 -78 -27 0 -45 18 -45 45 0 27 18 45 45 45 12 0
26 -5 33 -12z m470 -80 c29 -29 7 -78 -34 -78 -42 0 -63 59 -30 82 17 12 51 9
64 -4z m-1739 -130 c17 -44 -27 -80 -69 -58 -22 12 -27 49 -8 68 21 21 68 15
77 -10z m-370 -42 c7 -8 11 -27 9 -43 -6 -51 -88 -41 -88 11 0 42 53 63 79 32z
m8699 -68 c29 -29 7 -78 -34 -78 -20 0 -54 32 -54 52 0 30 65 49 88 26z m-326
-51 c14 -23 8 -47 -17 -63 -23 -15 -27 -15 -50 0 -29 19 -32 42 -8 68 18 20
61 17 75 -5z m-8061 -27 c27 -15 26 -66 -2 -80 -46 -25 -97 53 -51 79 22 13
29 13 53 1z m6409 -264 c15 -19 9 -56 -11 -69 -9 -5 -28 -7 -42 -3 -48 12 -32
86 19 86 12 0 27 -7 34 -14z m5658 -28 c7 -7 12 -21 12 -33 0 -12 -5 -26 -12
-33 -7 -7 -21 -12 -33 -12 -12 0 -26 5 -33 12 -7 7 -12 21 -12 33 0 12 5 26
12 33 7 7 21 12 33 12 12 0 26 -5 33 -12z m-5034 -74 c19 -18 20 -28 6 -55
-19 -35 -90 -15 -90 26 0 20 28 45 50 45 10 0 26 -7 34 -16z m-2663 -44 c28
-16 26 -68 -3 -79 -13 -5 -32 -5 -43 -1 -27 10 -33 60 -9 77 22 16 30 16 55 3z
m9539 -129 c0 -24 -23 -33 -46 -17 -22 16 -10 36 22 36 17 0 24 -6 24 -19z
m-1465 -215 c23 -35 5 -76 -33 -76 -35 0 -52 16 -52 52 0 48 58 65 85 24z
m1843 -92 c3 -22 -21 -39 -39 -28 -11 6 -12 38 -2 48 13 13 38 1 41 -20z
m-2644 -150 c39 -38 -1 -104 -50 -82 -32 15 -39 44 -20 73 19 29 47 32 70 9z
m911 -90 c19 -20 16 -63 -6 -77 -26 -16 -68 0 -75 29 -12 48 46 83 81 48z
m-6994 -4 c28 -16 26 -68 -3 -79 -47 -19 -92 47 -52 76 22 16 30 16 55 3z
m8659 -100 c24 -24 25 -47 3 -72 -20 -22 -46 -23 -67 -2 -23 22 -20 60 6 78
29 20 34 20 58 -4z m696 -45 c15 -23 15 -27 0 -50 -29 -44 -86 -28 -86 25 0
53 57 69 86 25z m-10021 -79 c18 -27 11 -52 -17 -67 -45 -24 -95 54 -50 80 28
17 51 13 67 -13z m3433 -50 c-2 -11 -10 -22 -19 -24 -21 -4 -33 26 -18 44 15
18 41 5 37 -20z m-674 -122 c22 -21 20 -50 -5 -67 -26 -19 -58 -10 -71 19 -21
46 41 84 76 48z m-7609 -68 c30 -45 -20 -91 -64 -59 -26 17 -27 58 -3 72 28
17 51 12 67 -13z m5469 -42 c31 -30 13 -74 -30 -74 -25 0 -54 24 -54 45 0 20
28 45 50 45 10 0 26 -7 34 -16z m-5890 -40 c32 -32 13 -74 -34 -74 -47 0 -65
37 -33 72 20 22 46 23 67 2z m8354 -22 c3 -18 -1 -22 -22 -22 -19 0 -26 5 -26
18 0 39 43 43 48 4z m1066 -108 c33 -32 8 -84 -39 -84 -38 0 -60 61 -33 88 17
17 54 15 72 -4z m-4539 -64 c3 -5 19 -10 35 -10 39 0 67 -39 50 -69 -13 -25
-61 -28 -80 -6 -7 8 -20 15 -29 15 -21 0 -41 19 -41 40 0 32 49 55 65 30z
m-1047 -59 c3 -25 -2 -33 -21 -42 -36 -16 -67 3 -67 42 0 58 82 59 88 0z
m-377 19 c26 -14 26 -66 0 -80 -33 -17 -71 4 -71 39 0 42 33 61 71 41z m1119
-195 c7 -8 10 -25 6 -39 -11 -44 -76 -38 -76 7 0 43 44 63 70 32z m8968 -1
c41 -28 22 -94 -27 -94 -16 0 -51 38 -51 55 0 16 34 55 48 55 4 0 18 -7 30
-16z m-5664 -55 c20 -30 6 -63 -28 -67 -33 -4 -56 13 -56 42 0 47 57 63 84 25z
m1370 -75 c33 -32 8 -84 -39 -84 -38 0 -60 61 -33 88 17 17 54 15 72 -4z
m1274 -36 c3 -22 -2 -30 -23 -38 -39 -15 -53 -12 -66 12 -10 18 -8 24 11 40
34 28 74 20 78 -14z m850 -64 c36 -25 28 -75 -15 -88 -26 -8 -63 23 -63 53 0
17 33 51 50 51 3 0 16 -7 28 -16z m-502 -111 c5 -19 2 -30 -11 -40 -26 -18
-42 -16 -59 9 -21 30 -4 58 34 58 24 0 31 -5 36 -27z m-3792 -16 c22 -16 18
-55 -6 -71 -40 -24 -80 44 -42 71 10 7 21 13 24 13 3 0 14 -6 24 -13z m5686
-102 c21 -25 8 -69 -24 -80 -24 -8 -31 -6 -47 14 -21 26 -18 57 7 77 17 14 48
8 64 -11z m-12236 -81 c19 -19 20 -25 3 -49 -17 -23 -62 -14 -69 13 -12 44 34
69 66 36z m7236 1 c14 -17 5 -51 -17 -59 -22 -9 -50 1 -57 20 -16 41 45 73 74
39z m-2299 -25 c23 -13 25 -48 3 -57 -23 -8 -64 14 -64 35 0 33 24 41 61 22z
m8121 -125 c17 -38 -3 -75 -41 -75 -32 0 -51 22 -51 57 0 47 72 61 92 18z
m-1243 -69 c16 -19 10 -66 -10 -79 -24 -15 -66 -1 -72 25 -13 49 51 91 82 54z
m-4645 -78 c16 -26 -4 -53 -40 -53 -23 0 -30 5 -32 23 -7 47 47 69 72 30z
m3390 -7 c11 -17 -21 -33 -43 -21 -24 12 -26 21 -9 38 11 11 41 2 52 -17z
m-5450 -4 c26 -19 17 -51 -16 -55 -31 -4 -48 29 -28 53 15 18 21 19 44 2z
m-5530 -53 c19 -19 20 -25 3 -49 -17 -23 -62 -14 -69 13 -12 44 34 69 66 36z
m12424 -16 c7 -7 12 -24 12 -38 0 -53 -57 -69 -86 -25 -15 23 -15 27 0 50 18
27 54 33 74 13z m-8857 -226 c61 -60 133 -93 221 -101 60 -6 68 -8 43 -14 -42
-11 -120 -70 -155 -118 -41 -58 -70 -140 -71 -207 -1 -33 -4 -49 -8 -37 -43
131 -178 233 -314 238 l-64 2 60 32 c71 38 90 55 129 110 40 60 59 118 60 189
l1 62 27 -57 c15 -31 47 -75 71 -99z m2374 135 c23 -18 14 -63 -16 -72 -42
-14 -70 52 -31 74 22 14 25 13 47 -2z m2855 -22 c10 -12 10 -19 2 -27 -15 -15
-43 8 -35 28 7 18 17 18 33 -1z m1528 -37 c19 -19 15 -66 -7 -78 -31 -16 -49
-12 -67 15 -24 36 -6 75 34 75 15 0 33 -5 40 -12z m347 -133 c0 -23 -5 -31
-21 -33 -30 -4 -48 21 -34 48 18 33 55 23 55 -15z m-5771 9 c19 -18 19 -20 6
-45 -18 -32 -80 -19 -80 17 0 17 28 44 45 44 7 0 21 -7 29 -16z m576 -140 c0
-8 -9 -14 -20 -14 -19 0 -28 28 -13 43 9 9 33 -12 33 -29z m9568 -19 c16 -34
15 -40 -4 -59 -34 -35 -84 -10 -84 41 0 47 69 61 88 18z m-538 -35 c23 -23 25
-40 8 -62 -20 -24 -44 -28 -67 -12 -25 18 -27 56 -5 78 21 21 40 20 64 -4z
m-5562 -41 c4 -19 -19 -31 -38 -19 -18 11 -4 42 17 38 10 -2 19 -10 21 -19z
m-3834 2 c9 -14 -3 -39 -22 -46 -23 -8 -46 23 -31 42 13 15 45 17 53 4z m-400
-213 c16 -26 -4 -53 -40 -53 -23 0 -30 5 -32 23 -2 13 -1 30 2 38 8 20 56 14
70 -8z m4032 -13 c9 -23 -15 -55 -41 -55 -45 0 -55 68 -13 83 17 6 48 -10 54
-28z m1646 23 c28 -22 31 -55 9 -77 -38 -38 -81 -21 -81 30 0 17 8 34 22 43
27 19 30 19 50 4z m-7964 -84 c26 -18 28 -41 5 -66 -22 -24 -48 -23 -67 3 -16
23 -12 47 12 67 20 15 23 15 50 -4z m4416 -76 c16 -26 -4 -53 -40 -53 -23 0
-30 5 -32 23 -7 47 47 69 72 30z m754 -10 c21 -21 14 -57 -13 -70 -45 -20 -75
31 -39 66 19 19 36 20 52 4z m-1194 -14 c18 -18 18 -17 10 -38 -11 -30 -43
-40 -65 -20 -10 9 -19 23 -19 30 0 17 28 44 45 44 7 0 21 -7 29 -16z m4374
-16 c7 -7 12 -24 12 -38 0 -53 -57 -69 -86 -25 -15 23 -15 27 0 50 18 27 54
33 74 13z m-9234 -67 c14 -15 15 -24 6 -40 -14 -27 -56 -28 -70 -2 -13 25 -13
27 6 45 21 21 37 20 58 -3z m3344 -33 c18 -18 14 -56 -7 -68 -26 -14 -50 -3
-57 26 -11 42 34 72 64 42z m4320 -30 c34 -34 -6 -90 -48 -68 -35 19 -20 80
20 80 9 0 21 -5 28 -12z m-7124 -14 c30 -30 9 -84 -33 -84 -58 0 -53 98 6 100
6 0 19 -7 27 -16z m-2210 -20 c19 -19 20 -25 3 -49 -22 -29 -67 -13 -67 24 0
15 3 31 7 34 11 12 41 7 57 -9z m6594 -16 c31 -31 -11 -88 -50 -67 -34 18 -17
79 22 79 9 0 21 -5 28 -12z m8404 -45 c22 -20 23 -46 2 -67 -34 -35 -84 -10
-84 41 0 41 48 57 82 26z m-13610 -168 c8 -19 8 -28 -2 -40 -25 -31 -70 -11
-70 31 0 40 55 46 72 9z m14242 -41 c9 -8 16 -29 16 -45 0 -22 -6 -30 -24 -35
-39 -9 -60 -1 -70 28 -18 50 42 89 78 52z m-8174 -64 c0 -23 -5 -31 -25 -36
-50 -12 -75 41 -33 70 30 21 58 4 58 -34z m-7070 -44 c20 -26 8 -61 -22 -64
-35 -4 -60 37 -38 63 16 19 44 19 60 1z m4628 -12 c39 -27 23 -84 -23 -84 -43
0 -61 53 -29 84 19 20 24 20 52 0z m766 -200 c19 -18 20 -28 6 -55 -22 -41
-98 -10 -84 35 12 38 50 48 78 20z m-2554 -40 c11 -11 12 -19 4 -32 -16 -24
-47 -26 -74 -4 -20 16 -21 21 -11 41 10 18 18 21 39 16 15 -3 34 -13 42 -21z
m10948 -146 c19 -19 15 -66 -7 -78 -31 -16 -49 -12 -67 15 -24 36 -6 75 34 75
15 0 33 -5 40 -12z m-8460 -162 c4 -33 -13 -56 -42 -56 -47 0 -63 57 -25 84
30 20 63 6 67 -28z m5880 22 c7 -7 12 -24 12 -38 0 -31 -17 -50 -44 -50 -25 0
-56 28 -56 51 0 40 60 65 88 37z m-8183 -24 c19 -20 16 -43 -7 -58 -23 -14
-52 3 -56 34 -6 38 34 53 63 24z m458 -185 c19 -26 10 -58 -19 -71 -46 -21
-84 41 -48 76 21 22 50 20 67 -5z m3201 -26 c4 -9 2 -21 -3 -26 -15 -15 -41 0
-41 23 0 25 35 28 44 3z m810 -109 c32 -31 6 -81 -36 -71 -33 9 -42 34 -23 63
18 28 37 30 59 8z m4003 -10 c29 -8 48 -55 34 -83 -35 -65 -121 -46 -121 28 0
47 35 69 87 55z m-9189 -46 c30 -30 3 -83 -39 -76 -32 5 -45 31 -31 62 13 28
49 35 70 14z m646 -150 c8 -13 7 -21 -1 -29 -16 -16 -43 5 -43 33 0 24 28 21
44 -4z m4947 -9 c14 -26 -5 -59 -34 -59 -47 0 -63 48 -26 74 25 17 45 12 60
-15z m-1063 -115 c2 -12 -4 -24 -12 -27 -19 -7 -40 18 -32 39 8 22 40 13 44
-12z m7227 -140 c86 -74 125 -98 194 -118 67 -20 129 -20 198 -2 75 20 117 48
264 176 l63 55 -87 -100 c-49 -55 -102 -129 -120 -165 -29 -59 -32 -73 -32
-160 0 -81 4 -103 26 -150 26 -56 94 -144 178 -234 28 -29 -1 -8 -71 51 -95
82 -131 105 -188 127 -91 34 -166 34 -254 2 -74 -26 -92 -39 -226 -157 l-95
-84 98 110 c58 66 110 136 130 175 29 59 32 72 32 160 0 82 -4 103 -26 151
-26 54 -99 147 -218 274 l-56 60 60 -56 c33 -30 92 -82 130 -115z m-11519 141
c8 -20 -13 -45 -38 -45 -21 0 -33 22 -24 45 7 20 55 19 62 0z m-456 -219 c16
-21 9 -56 -15 -72 -41 -27 -88 39 -53 74 16 16 53 15 68 -2z m4501 -6 c23 -13
26 -62 4 -80 -42 -35 -97 30 -60 70 21 23 29 24 56 10z m-2120 -160 c21 -12
26 -52 7 -67 -39 -30 -78 -14 -78 31 0 40 32 57 71 36z m-473 -64 c4 -33 -13
-56 -42 -56 -47 0 -63 57 -25 84 30 20 63 6 67 -28z m1335 23 c32 -44 -14 -94
-59 -64 -28 18 -31 46 -8 69 21 22 50 20 67 -5z m4877 -18 c14 -27 13 -47 -6
-65 -35 -35 -84 -10 -84 43 0 39 71 56 90 22z m4860 -41 c36 0 53 6 85 33 l40
32 -32 -40 c-43 -52 -46 -112 -7 -162 l25 -33 -37 25 c-48 32 -100 33 -147 1
l-35 -24 24 35 c38 56 31 114 -20 172 -15 19 -11 17 19 -7 31 -25 49 -32 85
-32z m-12770 -80 c23 -43 -20 -92 -60 -70 -19 10 -25 27 -20 60 5 34 63 41 80
10z m4845 -54 c8 -24 6 -31 -14 -47 -28 -23 -32 -23 -55 -6 -22 16 -25 65 -5
78 27 18 63 5 74 -25z m-3081 -32 c9 -8 16 -22 16 -30 0 -16 -35 -54 -50 -54
-15 0 -50 38 -50 54 0 20 28 46 50 46 10 0 26 -7 34 -16z m6663 -110 c5 -14
-11 -34 -27 -34 -3 0 -11 4 -19 9 -19 12 -6 41 19 41 11 0 23 -7 27 -16z
m-889 -36 c7 -7 12 -24 12 -38 0 -33 -17 -50 -51 -50 -34 0 -57 46 -39 79 12
24 58 29 78 9z m-4827 -168 c23 -13 25 -47 2 -72 -20 -22 -31 -23 -55 -1 -23
21 -23 59 0 72 22 13 29 13 53 1z m4241 -7 c26 -23 23 -59 -6 -78 -19 -12 -30
-14 -44 -6 -39 21 -38 75 1 91 30 12 28 12 49 -7z m1842 -79 c21 -8 20 -40 -1
-48 -9 -4 -23 0 -31 8 -13 12 -13 18 -2 30 14 18 13 18 34 10z m3530 -169 c71
-30 133 -14 219 57 l52 43 -46 -55 c-55 -66 -73 -115 -65 -175 7 -41 15 -56
76 -137 l24 -33 -37 32 c-105 92 -193 94 -300 10 l-52 -41 42 53 c83 104 83
183 0 284 l-51 62 51 -43 c28 -23 67 -49 87 -57z m-6163 -6 c26 -26 21 -60
-11 -76 -52 -26 -96 47 -48 81 29 21 34 20 59 -5z m915 -94 c18 -28 11 -60
-17 -76 -30 -16 -69 13 -69 51 0 50 58 68 86 25z m1662 -97 c22 -22 14 -67
-14 -80 -30 -14 -53 -3 -65 29 -16 44 46 84 79 51z m686 -34 c19 -18 21 -55 4
-72 -27 -27 -88 0 -88 39 0 23 26 49 50 49 10 0 26 -7 34 -16z m-1156 -122 c6
-9 12 -22 12 -29 0 -16 -36 -53 -52 -53 -22 0 -48 33 -48 61 0 47 56 61 88 21z
m-8252 -193 c17 -19 17 -23 3 -47 -18 -33 -44 -39 -70 -16 -23 21 -24 47 -3
68 21 22 47 20 70 -5z m3542 -221 c7 -7 12 -24 12 -38 0 -63 -71 -70 -93 -9
-14 40 51 77 81 47z m7686 -44 c39 -38 5 -105 -45 -89 -41 13 -44 79 -5 95 30
12 33 12 50 -6z m-8052 -6 c24 -20 28 -44 12 -67 -19 -26 -60 -27 -74 -2 -14
28 -13 38 10 61 23 23 31 24 52 8z m-4532 -118 c25 -25 25 -32 2 -60 -39 -48
-102 3 -68 55 20 30 39 32 66 5z m1413 -48 c26 -23 22 -68 -8 -88 -55 -36
-111 17 -80 76 21 41 49 45 88 12z m10715 2 c26 -18 29 -56 6 -78 -20 -21 -43
-20 -66 1 -24 21 -23 48 2 73 24 24 29 24 58 4z m-2588 -40 c0 -19 -5 -24 -25
-24 -20 0 -25 5 -25 24 0 13 6 26 13 29 22 7 37 -4 37 -29z m-10012 -16 c20
-20 15 -66 -9 -78 -26 -14 -69 11 -69 40 0 39 51 65 78 38z m5456 -11 c22 -16
18 -65 -6 -80 -28 -18 -68 7 -68 42 0 44 39 64 74 38z m4046 -27 c24 -24 26
-53 4 -74 -32 -33 -84 -8 -84 39 0 21 32 55 52 55 5 0 17 -9 28 -20z m-4302
-122 c7 -7 12 -27 12 -45 0 -27 -5 -34 -27 -39 -34 -9 -57 6 -61 42 -6 43 46
72 76 42z m1273 -24 c17 -20 2 -45 -34 -58 -49 -18 -82 44 -34 64 33 13 53 12
68 -6z m859 -84 c24 -24 25 -47 3 -72 -20 -22 -46 -23 -67 -2 -23 22 -20 60 6
78 29 20 34 20 58 -4z m5742 -17 c22 -20 23 -46 2 -67 -31 -32 -84 -8 -84 38
0 44 47 61 82 29z m-6252 -82 c13 -25 13 -27 -6 -45 -23 -24 -53 -20 -66 9 -8
19 -8 28 2 40 18 21 57 19 70 -4z m-1859 -121 c23 -13 26 -62 5 -80 -25 -20
-60 -8 -71 24 -8 24 -6 31 14 47 27 22 27 22 52 9z m3759 -11 c17 -31 4 -68
-26 -75 -46 -12 -85 51 -52 84 20 20 66 15 78 -9z m-4766 -165 c30 -30 9 -84
-33 -84 -58 0 -53 98 6 100 6 0 19 -7 27 -16z m5574 -46 c7 -7 12 -24 12 -38
0 -63 -71 -70 -93 -9 -14 40 51 77 81 47z m-1236 -85 c21 -19 24 -56 6 -70
-28 -21 -49 -22 -68 -3 -24 24 -26 53 -4 74 20 21 43 20 66 -1z m-5766 -115
c0 -77 38 -147 102 -188 22 -14 20 -15 -31 -12 -66 4 -141 -29 -181 -80 l-26
-33 0 54 c0 69 -32 135 -85 173 l-39 29 41 -7 c64 -10 135 18 181 71 20 25 37
44 37 45 1 0 1 -24 1 -52z m4511 36 c3 -8 0 -21 -6 -27 -14 -14 -44 2 -49 27
-5 22 46 22 55 0z m1445 -81 c38 -35 14 -87 -39 -81 -38 4 -55 49 -28 78 22
24 42 25 67 3z m-8278 -22 c37 -41 -14 -97 -60 -66 -28 18 -31 46 -8 69 21 21
47 20 68 -3z m5170 -7 c9 -8 16 -22 16 -30 0 -16 -35 -54 -50 -54 -12 0 -50
37 -50 48 0 4 7 18 16 30 18 26 46 28 68 6z m1016 -123 c22 -41 -1 -81 -45
-81 -38 0 -60 61 -33 88 19 19 66 15 78 -7z m5395 -51 c15 -16 17 -26 9 -47
-14 -40 -37 -50 -69 -29 -22 14 -26 22 -20 44 14 55 47 68 80 32z m-9637 -107
c-14 -76 -1 -169 36 -249 28 -61 121 -160 184 -194 20 -12 28 -18 17 -14 -41
13 -152 16 -207 5 -66 -14 -137 -49 -188 -94 -39 -34 -93 -102 -103 -131 -13
-34 -15 -12 -5 43 15 71 -1 172 -40 254 -31 67 -111 155 -172 188 l-35 20 33
-7 c61 -11 166 -7 219 9 29 9 78 33 109 53 56 37 137 127 149 165 13 39 14 12
3 -48z m4588 53 c9 -24 -15 -58 -39 -54 -25 3 -34 32 -17 53 16 19 49 19 56 1z
m4363 -160 c16 -19 10 -66 -10 -79 -24 -15 -66 -1 -72 25 -13 49 51 91 82 54z
m-535 -42 c9 -8 16 -29 16 -45 0 -22 -6 -32 -26 -39 -26 -10 -64 1 -64 20 0 4
-3 15 -6 23 -6 17 29 57 50 57 8 0 22 -7 30 -16z m-10726 -77 c2 -9 -4 -20
-12 -23 -21 -8 -46 13 -39 32 8 20 47 13 51 -9z m13713 -99 c14 -26 2 -57 -27
-70 -19 -9 -28 -8 -44 7 -30 28 -25 76 10 87 23 7 50 -3 61 -24z m213 10 c23
-32 20 -55 -9 -74 -23 -15 -27 -15 -50 0 -29 19 -32 51 -8 78 22 24 49 23 67
-4z m-7306 -90 c19 -19 15 -66 -7 -78 -31 -16 -49 -12 -67 15 -24 36 -6 75 34
75 15 0 33 -5 40 -12z m376 -194 c33 -32 8 -84 -39 -84 -24 0 -45 25 -45 54 0
20 28 46 50 46 10 0 26 -7 34 -16z m6842 -89 c20 -31 10 -63 -23 -71 -35 -9
-57 7 -61 42 -7 52 55 74 84 29z m-8698 -87 c21 -21 15 -67 -12 -79 -32 -15
-66 4 -66 36 0 44 50 71 78 43z m5950 -40 c17 -17 15 -63 -2 -78 -23 -18 -59
-8 -75 22 -14 24 -14 28 3 47 21 23 56 27 74 9z m670 0 c7 -7 12 -27 12 -45 0
-27 -5 -35 -26 -43 -38 -15 -64 3 -64 45 0 47 48 73 78 43z m-32 -223 c31 -48
-15 -101 -62 -70 -28 18 -32 56 -8 79 23 23 51 20 70 -9z m-6685 -103 c6 -14
2 -28 -10 -43 -24 -30 -68 -20 -77 18 -14 55 67 79 87 25z m-2965 -337 c15
-23 15 -27 0 -50 -19 -29 -42 -32 -68 -8 -22 20 -23 32 -2 61 20 29 50 28 70
-3z m9032 -27 c18 -18 15 -52 -6 -71 -37 -34 -94 29 -62 69 15 17 52 18 68 2z
m-844 -34 c33 -32 8 -84 -39 -84 -41 0 -62 69 -27 89 25 15 48 13 66 -5z
m-7746 -16 c22 -22 14 -67 -13 -80 -46 -21 -86 40 -49 76 18 19 45 21 62 4z
m5168 -133 c20 -31 10 -63 -23 -71 -33 -9 -57 6 -61 38 -6 53 55 77 84 33z
m3077 -86 c19 -26 10 -58 -19 -71 -46 -21 -84 41 -48 76 21 22 50 20 67 -5z
m-8478 -203 c31 -46 -25 -97 -66 -60 -23 21 -24 47 -3 68 23 23 51 20 69 -8z
m-1455 -81 c0 -45 -53 -73 -80 -41 -18 22 -8 59 19 73 32 15 61 0 61 -32z
m7168 8 c23 -32 15 -72 -19 -92 -51 -31 -89 -5 -89 60 0 26 6 42 18 49 23 14
74 4 90 -17z m5572 -133 c11 -11 20 -24 20 -30 0 -14 -37 -50 -52 -50 -17 0
-48 31 -48 48 0 20 29 52 47 52 7 0 22 -9 33 -20z m-1617 -24 c26 -20 23 -74
-7 -87 -37 -17 -66 3 -66 46 0 48 36 69 73 41z m2387 -196 c0 -38 -24 -56 -58
-44 -33 11 -41 48 -17 74 14 15 22 17 46 8 23 -8 29 -16 29 -38z m-2579 0 c23
-13 25 -46 2 -58 -21 -12 -73 5 -73 23 0 42 29 57 71 35z m297 -188 c25 -32 3
-82 -38 -82 -47 0 -67 67 -29 94 23 16 47 12 67 -12z m-11837 -104 c8 -14 6
-25 -6 -44 -18 -28 -46 -31 -69 -8 -21 21 -20 40 3 63 23 23 57 18 72 -11z
m14033 -7 c30 -33 -2 -89 -44 -76 -33 10 -44 42 -25 71 19 29 46 31 69 5z
m-2296 -23 c28 -28 1 -75 -37 -63 -11 3 -23 15 -26 26 -12 38 35 65 63 37z
m-5280 -60 c7 -7 12 -24 12 -38 0 -31 -17 -50 -45 -50 -29 0 -45 19 -45 52 0
40 50 64 78 36z m5743 -129 c16 -30 -3 -69 -33 -69 -34 0 -50 15 -50 45 0 46
61 64 83 24z m-1181 -187 c31 -25 21 -69 -17 -78 -50 -13 -76 50 -35 84 21 16
26 15 52 -6z m-4926 -54 c20 -28 20 -43 0 -62 -35 -35 -84 -10 -84 43 0 41 60
54 84 19z m-4296 -80 c7 -7 12 -21 12 -33 0 -12 -5 -26 -12 -33 -7 -7 -21 -12
-33 -12 -12 0 -26 5 -33 12 -7 7 -12 21 -12 33 0 12 5 26 12 33 7 7 21 12 33
12 12 0 26 -5 33 -12z m9872 -29 c0 -12 -7 -19 -19 -19 -23 0 -35 28 -20 46
15 18 39 1 39 -27z m-9690 -84 c15 -18 5 -64 -15 -72 -25 -9 -62 5 -68 26 -12
46 53 82 83 46z m9278 -31 c4 -28 -24 -51 -46 -38 -23 15 -25 29 -6 48 21 22
48 17 52 -10z m-3820 -146 c7 -7 12 -21 12 -33 0 -12 -5 -26 -12 -33 -7 -7
-21 -12 -33 -12 -12 0 -26 5 -33 12 -7 7 -12 21 -12 33 0 12 5 26 12 33 7 7
21 12 33 12 12 0 26 -5 33 -12z m3362 -68 c11 -11 20 -25 20 -32 0 -18 -31
-48 -51 -48 -21 0 -49 26 -49 46 0 16 35 54 50 54 6 0 19 -9 30 -20z m-9072
-26 c4 -38 -18 -59 -53 -50 -15 4 -27 16 -31 31 -9 35 12 57 50 53 27 -3 31
-7 34 -34z m6086 -130 c19 -18 20 -28 6 -55 -21 -39 -90 -16 -90 30 0 16 30
41 50 41 10 0 26 -7 34 -16z m5387 -26 c23 -42 -45 -90 -79 -56 -19 19 -14 55
9 71 25 18 56 11 70 -15z m-9843 0 c29 -29 7 -78 -34 -78 -42 0 -63 59 -30 82
17 12 51 9 64 -4z m10683 -17 c20 -16 22 -23 14 -47 -11 -30 -47 -43 -74 -25
-20 13 -17 62 5 78 23 17 27 17 55 -6z m-1335 -12 c17 -19 17 -23 3 -47 -19
-35 -52 -40 -72 -11 -17 23 -13 47 11 67 22 17 36 15 58 -9z m-9276 -53 c29
-36 -13 -92 -57 -75 -26 9 -32 56 -11 77 16 16 53 15 68 -2z m3398 -90 c4 -34
-13 -56 -44 -56 -30 0 -58 41 -49 70 16 50 87 39 93 -14z m4176 18 c32 -31 14
-84 -29 -84 -46 0 -62 57 -23 84 28 20 33 20 52 0z m1784 -121 c7 -44 -58 -69
-81 -32 -14 22 -1 67 21 72 24 5 56 -16 60 -40z m-9154 -119 c32 -31 14 -76
-30 -76 -25 0 -54 23 -54 44 0 13 39 48 54 48 8 0 22 -7 30 -16z m-1694 -40
c11 -12 10 -18 -3 -32 -16 -15 -18 -15 -34 0 -13 14 -14 20 -3 32 7 9 16 16
20 16 4 0 13 -7 20 -16z m1422 -71 c10 -9 18 -23 18 -31 0 -20 -29 -52 -47
-52 -15 0 -53 35 -53 50 0 14 37 50 52 50 6 0 20 -7 30 -17z m-822 -57 c31
-39 -26 -98 -64 -66 -19 15 -21 66 -3 73 24 10 55 7 67 -7z m11200 -15 c10
-21 4 -51 -14 -63 -41 -28 -90 17 -67 61 15 28 66 29 81 2z m-3925 -51 c17
-53 -38 -91 -77 -52 -15 15 -19 27 -14 47 12 47 76 51 91 5z m-6137 -23 c6 -5
12 -16 12 -25 0 -20 -29 -52 -47 -52 -22 0 -53 38 -46 57 13 39 45 47 81 20z
m2176 -43 c33 -32 13 -74 -36 -74 -40 0 -59 41 -33 70 22 24 48 26 69 4z m546
-24 c22 -41 -20 -84 -65 -67 -20 8 -30 54 -15 72 19 22 67 19 80 -5z m2959
-82 c14 -24 14 -28 -3 -47 -11 -12 -27 -21 -37 -21 -40 0 -65 60 -37 88 20 20
61 10 77 -20z m-2602 -4 c3 -8 -1 -22 -9 -30 -12 -12 -17 -12 -33 -1 -23 17
-14 47 15 47 11 0 23 -7 27 -16z m478 -149 c0 -36 -2 -40 -25 -40 -20 0 -26 6
-28 28 -5 42 5 59 30 55 20 -3 23 -9 23 -43z m-1624 -55 c28 -16 26 -66 -3
-76 -28 -10 -51 -6 -60 9 -14 21 -8 56 10 66 22 13 29 13 53 1z m637 -53 c-4
-31 -43 -35 -59 -6 -10 19 -9 25 6 35 25 18 57 0 53 -29z m3571 -51 c7 -8 11
-30 9 -48 -3 -28 -7 -34 -31 -36 -36 -4 -57 13 -57 49 0 42 54 66 79 35z
m-2795 -128 c8 -13 8 -23 0 -35 -16 -26 -51 -28 -64 -4 -25 47 36 83 64 39z
m4004 -120 c28 -28 7 -78 -33 -78 -27 0 -45 18 -45 45 0 27 18 45 45 45 12 0
26 -5 33 -12z m-4505 -22 c10 -26 -34 -49 -48 -26 -8 13 13 40 30 40 7 0 15
-6 18 -14z m-2005 -108 c7 -7 12 -21 12 -33 0 -29 -19 -45 -52 -45 -21 0 -31
6 -38 26 -13 32 -13 30 6 48 18 19 55 21 72 4z m-4792 -66 c36 -25 20 -82 -24
-82 -34 0 -52 16 -52 47 0 33 47 55 76 35z m14488 -88 c30 -30 9 -84 -33 -84
-58 0 -53 98 6 100 6 0 19 -7 27 -16z m-10080 -60 c33 -32 13 -88 -36 -99 -52
-13 -96 78 -50 104 26 15 69 13 86 -5z m2890 -10 c23 -23 20 -51 -8 -69 -46
-31 -97 25 -60 66 21 23 47 24 68 3z m2647 -34 c25 -14 24 -52 -1 -75 -29 -26
-70 -7 -70 33 0 46 29 64 71 42z m1423 -63 c19 -26 19 -30 5 -55 -16 -30 -70
-42 -95 -21 -36 29 2 114 48 107 12 -2 30 -16 42 -31z m-1877 -63 c10 -25 -14
-64 -39 -64 -43 0 -59 24 -44 67 12 36 69 34 83 -3z m-8653 0 c30 -30 13 -74
-29 -74 -27 0 -45 18 -45 45 0 42 44 59 74 29z m14101 -8 c18 -26 11 -52 -16
-67 -22 -12 -53 2 -63 27 -9 23 20 64 44 64 11 0 26 -11 35 -24z m-6137 -98
c21 -21 15 -76 -9 -89 -54 -28 -93 37 -49 81 23 23 41 25 58 8z m3588 -93 c15
-23 15 -27 0 -50 -27 -42 -86 -26 -86 23 0 55 56 72 86 27z m-221 -303 c18
-14 42 -22 69 -22 l41 0 -43 -20 c-44 -20 -72 -63 -72 -112 0 -21 -2 -20 -19
8 -28 46 -59 64 -111 65 -41 1 -43 1 -16 9 60 18 103 89 90 149 -3 17 2 11 14
-15 11 -22 32 -50 47 -62z m2279 22 c22 -21 20 -47 -4 -69 -29 -26 -70 -7 -70
33 0 49 42 69 74 36z m-2897 -26 c-3 -8 -6 -5 -6 6 -1 11 2 17 5 13 3 -3 4
-12 1 -19z m-977 -69 c0 -50 -58 -66 -86 -24 -13 20 -15 31 -6 50 22 49 92 29
92 -26z m202 49 c30 -24 27 -74 -6 -89 -36 -17 -66 3 -66 45 0 24 6 36 23 44
29 14 30 14 49 0z m869 -280 c31 -61 105 -134 163 -163 98 -47 150 -48 426
-10 l35 5 -35 -10 c-19 -6 -78 -22 -130 -36 -117 -33 -173 -60 -227 -113 -70
-68 -99 -125 -117 -236 -2 -16 2 -83 10 -148 9 -65 14 -121 11 -123 -2 -2 -16
41 -31 97 -35 130 -58 179 -117 243 -56 61 -141 105 -222 113 -45 4 -141 -3
-277 -22 -19 -3 17 10 80 28 197 58 269 107 325 221 45 91 52 157 31 304 -22
154 -20 156 20 14 19 -67 43 -141 55 -164z m1285 237 c20 -31 10 -63 -23 -71
-35 -9 -57 7 -61 42 -7 52 55 74 84 29z m-357 -51 c14 -32 0 -61 -34 -70 -34
-8 -55 11 -55 51 0 27 5 35 28 43 35 12 47 7 61 -24z m-4168 -4 c21 -12 25
-50 7 -68 -35 -35 -101 4 -78 47 15 30 40 37 71 21z m-1741 -30 c25 -25 25
-42 0 -65 -27 -24 -68 -13 -76 22 -5 20 -2 31 16 45 28 23 35 23 60 -2z m6768
8 c22 -22 14 -67 -13 -80 -46 -21 -86 40 -49 76 18 19 45 21 62 4z m-6940
-160 c7 -7 12 -21 12 -33 0 -29 -19 -45 -52 -45 -25 0 -48 23 -48 49 0 33 63
54 88 29z m4197 -94 c19 -20 16 -63 -6 -77 -23 -14 -67 0 -74 24 -8 26 19 69
45 69 10 0 26 -7 35 -16z m-8851 -40 c28 -28 18 -66 -21 -78 -15 -5 -28 -1
-42 13 -26 26 -26 36 -1 61 24 24 43 25 64 4z m7844 -17 c15 -12 16 -49 0 -65
-7 -7 -21 -12 -33 -12 -29 0 -45 19 -45 52 0 42 39 55 78 25z m5180 -36 c4
-28 -14 -51 -42 -51 -47 0 -63 57 -24 84 19 13 25 14 43 2 11 -7 21 -23 23
-35z m-6250 -47 c26 -18 28 -50 5 -76 -20 -22 -41 -23 -65 -1 -24 21 -23 48 2
73 24 24 29 24 58 4z m3966 -139 c9 -13 37 -36 62 -51 43 -25 51 -27 132 -21
l87 5 -74 -23 c-127 -40 -168 -100 -158 -229 l6 -71 -23 70 c-39 114 -111 161
-233 150 l-58 -5 63 21 c113 38 159 108 149 228 l-6 66 19 -58 c10 -32 25 -69
34 -82z m-5696 89 c46 -32 3 -96 -48 -71 -33 17 -37 51 -8 71 12 9 25 16 28
16 3 0 16 -7 28 -16z m-5420 -236 c28 -28 7 -78 -33 -78 -12 0 -26 5 -33 12
-16 16 -15 65 1 71 22 10 53 7 65 -5z m10849 -34 c-3 -3 -12 -4 -19 -1 -8 3
-5 6 6 6 11 1 17 -2 13 -5z m-10379 -26 c7 -7 12 -21 12 -33 0 -48 -68 -64
-88 -21 -20 45 41 89 76 54z m6600 -44 c4 -38 -18 -59 -53 -50 -15 4 -27 16
-31 31 -9 35 12 57 50 53 27 -3 31 -7 34 -34z m-340 -26 c17 -17 15 -65 -4
-72 -29 -11 -62 -6 -68 10 -16 41 1 74 39 74 12 0 26 -5 33 -12z m1117 -18 c0
-29 -32 -41 -41 -16 -9 24 4 48 23 44 12 -2 18 -12 18 -28z m-9117 -92 c7 -7
12 -21 12 -33 0 -29 -19 -45 -52 -45 -34 0 -55 39 -38 71 12 22 59 26 78 7z
m-368 -66 c44 -35 -1 -98 -50 -72 -27 14 -31 49 -9 71 24 24 31 24 59 1z
m11967 -54 c-3 -7 -5 -2 -5 12 0 14 2 19 5 13 2 -7 2 -19 0 -25z m-11622 -99
c13 -20 -5 -59 -31 -65 -31 -8 -66 21 -62 50 6 41 71 52 93 15z m6393 -31 c27
-27 1 -78 -38 -78 -29 0 -54 43 -40 69 12 24 58 29 78 9z m623 -77 c21 -16 22
-22 11 -45 -16 -36 -67 -37 -84 -1 -9 21 -8 28 7 45 23 25 36 25 66 1z m-2640
-153 c13 -25 -13 -68 -41 -68 -45 0 -66 58 -29 83 25 18 56 11 70 -15z m9919
13 c17 -33 -4 -71 -40 -71 -38 0 -59 35 -41 69 15 28 66 29 81 2z m-116 -337
c21 -21 20 -47 -3 -68 -41 -37 -97 14 -66 60 18 28 46 31 69 8z m-8603 -294
c19 -11 25 -45 11 -66 -11 -16 -47 -23 -66 -12 -22 12 -21 64 2 77 22 13 29
13 53 1z m5653 -73 c8 -23 6 -31 -12 -49 -18 -19 -25 -20 -47 -10 -28 13 -35
58 -13 80 22 22 62 10 72 -21z m447 -78 c16 -31 -3 -69 -35 -69 -27 0 -56 23
-56 45 0 42 71 61 91 24z m-3336 -29 c0 -27 -22 -39 -31 -16 -8 22 3 49 19 43
6 -2 12 -14 12 -27z m-3427 -62 c7 -7 12 -21 12 -33 0 -29 -19 -45 -52 -45
-21 0 -31 6 -38 26 -13 32 -13 30 6 48 18 19 55 21 72 4z m2746 -74 c25 -10
38 -41 27 -63 -14 -25 -45 -32 -70 -14 -25 17 -27 46 -5 67 17 18 24 19 48 10z
m346 -169 c0 -18 -5 -25 -19 -25 -11 0 -23 5 -26 10 -11 18 3 40 25 40 15 0
20 -7 20 -25z m-2466 -18 c12 -9 17 -23 14 -42 -3 -28 -6 -30 -43 -30 -37 0
-40 2 -43 30 -4 29 17 55 43 55 6 0 19 -6 29 -13z m5896 -51 c18 -22 8 -59
-20 -73 -20 -10 -27 -9 -42 4 -21 19 -24 53 -6 71 16 16 53 15 68 -2z m-1460
-61 c19 -23 4 -64 -28 -76 -23 -9 -29 -7 -44 11 -18 23 -15 47 10 68 21 16 47
15 62 -3z m-9909 -25 c28 -16 26 -68 -3 -79 -52 -19 -95 32 -58 69 23 23 33
24 61 10z m-400 -121 c16 -31 -3 -69 -35 -69 -45 0 -73 49 -44 78 20 20 66 14
79 -9z m4949 -39 c24 -24 25 -43 4 -64 -30 -31 -84 -9 -84 34 0 17 34 50 52
50 5 0 17 -9 28 -20z m-1121 -48 c23 -43 -27 -91 -68 -65 -20 13 -26 50 -11
69 18 20 67 18 79 -4z m-365 -28 c19 -18 20 -28 6 -55 -21 -39 -90 -16 -90 30
0 16 30 41 50 41 10 0 26 -7 34 -16z m4400 -74 c50 -19 27 -96 -26 -88 -33 5
-47 51 -23 78 21 23 17 23 49 10z m-7880 -146 c14 -36 6 -64 -19 -70 -14 -3
-32 -4 -40 -1 -20 8 -30 54 -15 72 17 20 66 19 74 -1z m9710 -170 c9 -8 16
-24 16 -34 0 -20 -25 -50 -41 -50 -27 0 -49 22 -49 50 0 44 44 65 74 34z"/>
</g>
</svg>
